<?xml version="1.0" encoding="UTF-8" standalone="no"?>
<svg
   width="2969.7"
   height="680.3"
   viewBox="0 0 785.7 180"
   xml:space="preserve"
   version="1.1"
   id="svg223"
   sodipodi:docname="speechbrain-logo-text-horiz-min.svg"
   inkscape:export-filename="speechbrain-logo-text-horiz-min.png"
   inkscape:export-xdpi="96"
   inkscape:export-ydpi="96"
   inkscape:version="1.2.1 (9c6d41e410, 2022-07-14)"
   xmlns:inkscape="http://www.inkscape.org/namespaces/inkscape"
   xmlns:sodipodi="http://sodipodi.sourceforge.net/DTD/sodipodi-0.dtd"
   xmlns="http://www.w3.org/2000/svg"
   xmlns:svg="http://www.w3.org/2000/svg"><defs
   id="defs227" /><sodipodi:namedview
   id="namedview225"
   pagecolor="#ffffff"
   bordercolor="#000000"
   borderopacity="0.25"
   inkscape:showpageshadow="2"
   inkscape:pageopacity="0.0"
   inkscape:pagecheckerboard="0"
   inkscape:deskcolor="#d1d1d1"
   showgrid="false"
   inkscape:zoom="0.34690578"
   inkscape:cx="1203.4968"
   inkscape:cy="341.59131"
   inkscape:window-width="1440"
   inkscape:window-height="876"
   inkscape:window-x="1440"
   inkscape:window-y="0"
   inkscape:window-maximized="1"
   inkscape:current-layer="svg223" />
  <g
   transform="translate(-6.2 -.5)"
   id="g221">
    <ellipse
   style="fill:#fff;fill-opacity:1;fill-rule:nonzero;stroke:none;stroke-width:1.72583;stroke-linecap:round;stroke-linejoin:round;stroke-dasharray:none;stroke-opacity:1"
   cx="96.1"
   cy="90.5"
   rx="89.8"
   ry="90"
   id="ellipse177" />
    <ellipse
   style="fill:#fff;fill-opacity:1;fill-rule:nonzero;stroke:none;stroke-width:1.72583;stroke-linecap:round;stroke-linejoin:round;stroke-dasharray:none;stroke-opacity:1"
   cx="702.1"
   cy="90.5"
   rx="89.8"
   ry="90"
   id="ellipse179" />
    <path
   style="fill:#fff;fill-opacity:1;stroke:none;stroke-width:10.3339;stroke-linecap:round;stroke-linejoin:round;stroke-miterlimit:4.6;paint-order:stroke fill markers"
   d="M91.4.5h609.4v180H91.4z"
   id="path181" />
    <text
   xml:space="preserve"
   style="font-size:110.772px;font-family:'Avenir Next LT Pro';-inkscape-font-specification:'Avenir Next LT Pro';letter-spacing:-9.26042px;fill:#328ce7;fill-opacity:1;stroke:none;stroke-width:5.82083;stroke-linecap:round;stroke-linejoin:round;stroke-miterlimit:4.6;paint-order:stroke fill markers"
   x="209.8"
   y="123.3"
   id="text187"><tspan
     style="font-size:110.772px;fill:#328ce7;fill-opacity:1;stroke-width:5.82083"
     x="209.8"
     y="123.3"
     id="tspan185"><tspan
   style="font-size:110.772px;letter-spacing:-11.9062px"
   id="tspan183">S</tspan>peech</tspan></text>
    <text
   xml:space="preserve"
   style="font-size:110.772px;font-family:'Avenir Next LT Pro';-inkscape-font-specification:'Avenir Next LT Pro';letter-spacing:-10.5833px;fill:#328ce7;fill-opacity:1;stroke:none;stroke-width:5.82083;stroke-linecap:round;stroke-linejoin:round;stroke-miterlimit:4.6;paint-order:stroke fill markers"
   x="527.7"
   y="125"
   id="text197"><tspan
     style="font-size:110.772px;fill:#595959;fill-opacity:1;stroke-width:5.82083"
     x="527.7"
     y="125"
     id="tspan195"><tspan
       style="font-size:110.772px;letter-spacing:-12.1708px"
       id="tspan189">B</tspan><tspan
       style="font-size:110.772px;letter-spacing:-8.46667px"
       id="tspan191">r</tspan><tspan
       style="font-size:110.772px;letter-spacing:-12.1708px"
       id="tspan193">ain</tspan></tspan></text>
    <path
   style="fill:none;stroke:#585858;stroke-width:8.51318;stroke-linecap:round;stroke-linejoin:round;stroke-miterlimit:4.6;stroke-dasharray:none;stroke-opacity:1;paint-order:stroke fill markers"
   d="M112.9 126.5s11 21 32.1 32l5.2-5.5c-10.3-8.8-13.3-24-13.3-24s24.1-1.2 30.5-22.6C193 86 182 61.8 165.2 45.8s-31-20.1-58.7-16.5c-29-3.6-53.2 18.1-62.8 37.2-16.5 39.7 11.8 45 28.5 49.6 9.3 17.6 40.7 10.4 40.7 10.4z"
   id="path199" />
    <path
   style="fill:none;fill-opacity:0;stroke:#328ce7;stroke-width:8.51318;stroke-linecap:round;stroke-miterlimit:8.9;stroke-dasharray:none;stroke-opacity:1;paint-order:stroke fill markers"
   d="M77.1 71v14.7M88 59.7V97M99.1 66.9v22.9M110 50.3v56M121 55.2v46.3M132 71.3v14M143 63.5v29.7"
   id="path201" />
    <path
   style="fill:#328ce7;fill-opacity:1;stroke-width:3.07137;stroke-linecap:round;stroke-linejoin:round"
   d="M148.9 78.4a6 6 0 0 0 6.2 6.2c3.8 0 3.7-3 3.7-6.4 0-3.5.1-6.2-3.7-6.2-3.8 0-6.2 3-6.2 6.4z"
   id="path203" />
    <path
   style="fill:#328ce7;fill-opacity:1;stroke-width:3.07139;stroke-linecap:round;stroke-linejoin:round"
   d="M71.2 78.4a6 6 0 0 1-6.2 6.2c-3.8 0-3.7-3-3.7-6.4 0-3.5 0-6.2 3.7-6.2 3.8 0 6.2 3 6.2 6.4z"
   id="path205" />
    <path
   style="fill:none;fill-opacity:1;stroke:#585858;stroke-width:8.02671;stroke-linecap:round;stroke-linejoin:round;stroke-miterlimit:4.6;stroke-dasharray:none;stroke-opacity:1;paint-order:stroke fill markers"
   d="M113.3 126.2c17.2-4.6 24.2-15.6 24.2-15.6M168.4 49.2c-13.8-15.7-31.1-3.2-31.1-3.2"
   id="path207" />
    <path
   style="fill:none;fill-opacity:1;stroke:#585858;stroke-width:6.66246;stroke-linecap:round;stroke-linejoin:round;stroke-miterlimit:4.6;stroke-dasharray:none;stroke-opacity:1;paint-order:stroke fill markers"
   d="M40.6 99c-4-14.7 12.3-20.4 12.3-20.4"
   id="path209" />
    <path
   style="fill:none;fill-opacity:1;stroke:#585858;stroke-width:8.02671;stroke-linecap:round;stroke-linejoin:round;stroke-miterlimit:4.6;stroke-dasharray:none;stroke-opacity:1;paint-order:stroke fill markers"
   d="M73 117c-5.6-9.6-1.2-16.2-1.2-16.2"
   id="path211" />
    <path
   style="fill:none;fill-opacity:1;stroke:#585858;stroke-width:6.66246;stroke-linecap:round;stroke-linejoin:round;stroke-miterlimit:4.6;stroke-dasharray:none;stroke-opacity:1;paint-order:stroke fill markers"
   d="M174.8 58.8c6.2 16.8-6.2 19.9-6.2 19.9"
   id="path213" />
    <path
   style="fill:none;fill-opacity:1;stroke:#585858;stroke-width:8.02671;stroke-linecap:round;stroke-linejoin:round;stroke-miterlimit:4.6;stroke-dasharray:none;stroke-opacity:1;paint-order:stroke fill markers"
   d="M113.2 28.5C94.9 33 88.6 41.8 88.6 41.8"
   id="path215" />
    <path
   style="fill:#585858;fill-opacity:1;stroke-width:3.07137;stroke-linecap:round;stroke-linejoin:round"
   d="M171.3 78.4a6 6 0 0 1-6.3 6.2c-3.8 0-3.7-3-3.7-6.4 0-3.5 0-6.2 3.7-6.2 3.8 0 6.3 3 6.3 6.4z"
   id="path217" />
    <path
   style="fill:#585858;fill-opacity:1;stroke-width:3.07139;stroke-linecap:round;stroke-linejoin:round"
   d="M49.7 78.4a6 6 0 0 0 6.2 6.2c3.8 0 3.7-3 3.7-6.4 0-3.5.1-6.2-3.7-6.2-3.8 0-6.2 3-6.2 6.4z"
   id="path219" />
  </g>
</svg>
