<svg width="2969.7" height="680.3" viewBox="0 0 785.7 180" xml:space="preserve" xmlns="http://www.w3.org/2000/svg">
  <g transform="translate(-6.2 -.5)">
    <ellipse style="fill:#fff" cx="96.1" cy="90.5" rx="89.8" ry="90"/>
    <ellipse style="fill:#fff" cx="702.1" cy="90.5" rx="89.8" ry="90"/>
    <path style="fill:#fff" d="M91.4.5h609.4v180H91.4z"/>
    <path d="M264.5 52.4c-3.7-5-11.6-9.5-22.1-9.5-11.6 0-25 6.4-25 21.6 0 14.2 10.6 18.7 21 22 10 3 19.1 5.8 19.1 16.8 0 10-9.3 15.1-17.3 15.1-8.2 0-14.6-4.3-18-9.8l-6.9 5a30.3 30.3 0 0 0 24.7 11.7c12.4 0 25.6-6.9 25.6-22.6 0-15.7-12.2-19.3-23.2-23-8.8-2.8-17-5.4-17-15.3 0-10.1 8.9-14.8 16.6-14.8 7.5 0 12.9 3.1 16.2 7.9z" style="fill:#328ce7"/>
    <path d="M277.9 114.5h.3c4.3 6.5 12 10.1 19.5 10.1 16.2 0 26.8-12 26.8-27.2C324.5 82 314 70 297.7 70c-7.4 0-15.2 3.6-19.5 10.3h-.3v-9h-7.6V150h7.6zm38.6-17.1c0 11.5-7 20.8-19.6 20.8-11.6 0-20-9-20-20.8 0-11.9 8.4-21 20-21 12.5 0 19.6 9.5 19.6 21zM335.6 93.4c.7-8.9 8.1-17 18.2-17 10.7 0 16.7 7.2 17.2 17zm43 2.4c0-14.2-8.5-25.7-24.8-25.7a26.2 26.2 0 0 0-26.1 27.3 26.3 26.3 0 0 0 26.8 27.2 27 27 0 0 0 22.2-11l-5.6-4.4c-3 4.7-8.9 9-16.6 9a19 19 0 0 1-19-18.8h43l.1-3.6zM389.7 93.4c.7-8.9 8.1-17 18.2-17 10.7 0 16.7 7.2 17.2 17zm43 2.4c0-14.2-8.5-25.7-24.8-25.7a26.2 26.2 0 0 0-26.1 27.3 26.3 26.3 0 0 0 26.8 27.2 27 27 0 0 0 22.2-11l-5.6-4.4c-2.9 4.7-8.9 9-16.6 9a19 19 0 0 1-19-18.8h43l.1-3.6zM482.8 79.1c-4.4-6-12.3-9-19.3-9A26.3 26.3 0 0 0 436 97.4c0 15.6 11 27.2 27.6 27.2 9 0 15.3-3.5 19.8-9l-5.7-4.2c-3 4-7.5 6.8-14 6.8-12.1 0-19.8-9-19.8-20.8 0-11.9 7.8-21 19.9-21 5.6 0 10.8 3 13.3 7zM493.5 80V39.6H486v83.7h7.5V96.7c0-13.8 7.8-20.3 15.7-20.3 10.9 0 14.1 7.4 14.1 18.2v28.7h7.5V91.5c0-12.8-6.5-21.4-19.7-21.4-7.3 0-14.6 4-17.4 9.9z" style="fill:#328ce7"/>
    <path d="M538.1 125h23.3c18 0 29.2-8.6 29.2-21.7 0-11.4-7.5-18.5-17.7-19.6v-.2a17.1 17.1 0 0 0 13.8-16.9c0-15.7-13.3-20-25.2-20H538zm8-71.6h13.8c10.3 0 18.9 3.8 18.9 13.8 0 10.4-9 13.7-16.6 13.7H546zm0 34h16.3c12.7 0 20.1 5.1 20.1 15.4 0 11-10 15.3-21.6 15.3h-14.8z" style="fill:#585858"/>
    <path d="M596 84.6V125h7.5V98.4c0-13.8 7.2-19.6 15.2-19.6 2 0 4.4.3 5.3.7l1-7.1c-1.6-.5-3.1-.6-5-.6-7.3 0-13.7 4.2-16.6 10.2h-.3l-.4-8.8h-7.2c.3 3.5.4 8.6.4 11.4z" style="fill:#585858"/>
    <path d="M660 93.2c-18.9 0-36.5 1.4-36.5 17.4 0 11.5 10 15.7 18 15.7 8.2 0 14-2.9 18.8-9.7h.2c0 2.8.3 5.9.8 8.4h6.7a71 71 0 0 1-.9-11.6V90.7c0-12.7-9-18.9-20.1-18.9a29 29 0 0 0-20.4 7.5l4.2 5a22 22 0 0 1 15.4-6.2c9 0 13.8 4.5 13.8 13.4zm0 5.9v3.9c0 9.2-6 17.1-16.6 17.1-5.8 0-12.2-2.4-12.2-9.8 0-9.9 14.3-11.2 26.6-11.2zM682 73.2h-7.5V125h7.5zm1.5-20c0-3-2.6-5.3-5.3-5.3a5.4 5.4 0 0 0-5.3 5.3c0 3.1 2.7 5.3 5.3 5.3 2.7 0 5.3-2.2 5.3-5.3zM689.4 73.2c.4 3.5.5 8.6.5 11.4V125h7.5V98.4c0-13.8 7.8-20.3 15.7-20.3 10.9 0 14 7.4 14 18.2V125h7.6V93.2c0-12.8-6.5-21.4-19.7-21.4-7.3 0-14.8 4.2-17.7 10.2h-.2c0-2.2-.3-6-.5-8.8z" style="fill:#585858"/>
    <path style="fill:none;stroke:#585858;stroke-width:8.51318;stroke-linecap:round;stroke-linejoin:round;stroke-miterlimit:4.6;stroke-dasharray:none;stroke-opacity:1;paint-order:stroke fill markers" d="M112.9 126.5s11 21 32.1 32l5.2-5.5c-10.3-8.8-13.3-24-13.3-24s24.1-1.2 30.5-22.6C193 86 182 61.8 165.2 45.8s-31-20.1-58.7-16.5c-29-3.6-53.2 18.1-62.8 37.2-16.5 39.7 11.8 45 28.5 49.6 9.3 17.6 40.7 10.4 40.7 10.4z"/>
    <path style="fill:none;fill-opacity:0;stroke:#328ce7;stroke-width:8.51318;stroke-linecap:round;stroke-miterlimit:8.9;stroke-dasharray:none;stroke-opacity:1;paint-order:stroke fill markers" d="M77.1 71v14.7m10.9-26V97m11.1-30.1v22.9M110 50.3v56m11-51.1v46.3m11-30.2v14m11-21.8v29.7"/>
    <path style="fill:#328ce7;fill-opacity:1;stroke-width:3.07137;stroke-linecap:round;stroke-linejoin:round" d="M148.9 78.4a6 6 0 0 0 6.2 6.2c3.8 0 3.7-3 3.7-6.4 0-3.5.1-6.2-3.7-6.2-3.8 0-6.2 3-6.2 6.4z"/>
    <path style="fill:#328ce7;fill-opacity:1;stroke-width:3.07139;stroke-linecap:round;stroke-linejoin:round" d="M71.2 78.4a6 6 0 0 1-6.2 6.2c-3.8 0-3.7-3-3.7-6.4 0-3.5 0-6.2 3.7-6.2 3.8 0 6.2 3 6.2 6.4z"/>
    <path style="fill:none;fill-opacity:1;stroke:#585858;stroke-width:8.02671;stroke-linecap:round;stroke-linejoin:round;stroke-miterlimit:4.6;stroke-dasharray:none;stroke-opacity:1;paint-order:stroke fill markers" d="M113.3 126.2c17.2-4.6 24.2-15.6 24.2-15.6m30.9-61.4c-13.8-15.7-31.1-3.2-31.1-3.2"/>
    <path style="fill:none;fill-opacity:1;stroke:#585858;stroke-width:6.66246;stroke-linecap:round;stroke-linejoin:round;stroke-miterlimit:4.6;stroke-dasharray:none;stroke-opacity:1;paint-order:stroke fill markers" d="M40.6 99c-4-14.7 12.3-20.4 12.3-20.4"/>
    <path style="fill:none;fill-opacity:1;stroke:#585858;stroke-width:8.02671;stroke-linecap:round;stroke-linejoin:round;stroke-miterlimit:4.6;stroke-dasharray:none;stroke-opacity:1;paint-order:stroke fill markers" d="M73 117c-5.6-9.6-1.2-16.2-1.2-16.2"/>
    <path style="fill:none;fill-opacity:1;stroke:#585858;stroke-width:6.66246;stroke-linecap:round;stroke-linejoin:round;stroke-miterlimit:4.6;stroke-dasharray:none;stroke-opacity:1;paint-order:stroke fill markers" d="M174.8 58.8c6.2 16.8-6.2 19.9-6.2 19.9"/>
    <path style="fill:none;fill-opacity:1;stroke:#585858;stroke-width:8.02671;stroke-linecap:round;stroke-linejoin:round;stroke-miterlimit:4.6;stroke-dasharray:none;stroke-opacity:1;paint-order:stroke fill markers" d="M113.2 28.5C94.9 33 88.6 41.8 88.6 41.8"/>
    <path style="fill:#585858;fill-opacity:1;stroke-width:3.07137;stroke-linecap:round;stroke-linejoin:round" d="M171.3 78.4a6 6 0 0 1-6.3 6.2c-3.8 0-3.7-3-3.7-6.4 0-3.5 0-6.2 3.7-6.2 3.8 0 6.3 3 6.3 6.4z"/>
    <path style="fill:#585858;fill-opacity:1;stroke-width:3.07139;stroke-linecap:round;stroke-linejoin:round" d="M49.7 78.4a6 6 0 0 0 6.2 6.2c3.8 0 3.7-3 3.7-6.4 0-3.5.1-6.2-3.7-6.2-3.8 0-6.2 3-6.2 6.4z"/>
  </g>
</svg>
